<svg xmlns="http://www.w3.org/2000/svg" viewBox="0 0 44 30"><defs><style>.cls-1{fill:#44b4df;fill-rule:evenodd;}</style></defs><title>fog</title><g id="Layer_2" data-name="Layer 2"><g id="Climacons"><path class="cls-1" d="M1.17,22a15.51,15.51,0,0,1-.64-2H44a12.1,12.1,0,0,1-.19,2ZM8.26,2A15.94,15.94,0,0,1,23.72,2ZM.14,14a14.73,14.73,0,0,1,.39-2H40.92a12.06,12.06,0,0,1,1.46,2Zm1-4a16.16,16.16,0,0,1,1-2H29.84l.12.2A12.48,12.48,0,0,1,32,8a11.93,11.93,0,0,1,6.62,2ZM3.52,6A16.5,16.5,0,0,1,5.44,4H26.56a16.42,16.42,0,0,1,1.91,2ZM43.81,18H.14A16.52,16.52,0,0,1,0,16H43.3A11.06,11.06,0,0,1,43.81,18Zm-.51,6a13,13,0,0,1-.92,2H3.52a16,16,0,0,1-1.36-2ZM5.44,28H40.92a12.56,12.56,0,0,1-2.3,2H8.26A16.53,16.53,0,0,1,5.44,28Z"/></g></g></svg>