<svg xmlns="http://www.w3.org/2000/svg" xmlns:xlink="http://www.w3.org/1999/xlink" viewBox="0 0 441.92 416.17"><defs><style>.cls-1{fill:url(#linear-gradient);}.cls-2{fill:url(#radial-gradient);}.cls-3{fill:url(#radial-gradient-2);}</style><linearGradient id="linear-gradient" x1="422.72" y1="400.45" x2="13.52" y2="10.3" gradientUnits="userSpaceOnUse"><stop offset="0" stop-color="#00d4ff"/><stop offset="0.65" stop-color="#4343d1"/><stop offset="0.99" stop-color="#2e24d4"/></linearGradient><radialGradient id="radial-gradient" cx="220.96" cy="208.08" r="142.6" gradientUnits="userSpaceOnUse"><stop offset="0.34" stop-color="#bf6f00"/><stop offset="1" stop-color="#e5c500"/></radialGradient><radialGradient id="radial-gradient-2" cx="220.96" cy="208.08" r="98.8" gradientUnits="userSpaceOnUse"><stop offset="0" stop-color="#bf6f00"/><stop offset="1" stop-color="#e5c500"/></radialGradient></defs><title>Asset 1</title><g id="Layer_2" data-name="Layer 2"><g id="Layer_1-2" data-name="Layer 1"><rect class="cls-1" width="441.92" height="416.17" rx="12"/><polygon class="cls-2" points="323.62 232.56 419.09 205.47 322.11 177.95 391.24 106.76 293.49 131.42 317.76 35.19 245.44 105.42 218.35 9.95 190.83 106.94 119.63 37.8 144.29 135.55 48.07 111.28 118.3 183.6 22.83 210.69 119.81 238.21 50.68 309.41 148.43 284.75 124.15 380.98 196.48 310.75 223.57 406.22 251.09 309.23 322.29 378.37 297.63 280.61 393.85 304.89 323.62 232.56"/><circle class="cls-3" cx="220.96" cy="208.08" r="98.8"/></g></g></svg>