<svg xmlns="http://www.w3.org/2000/svg" viewBox="0 0 44.99 39"><defs><style>.cls-1{fill:#4d4e7f;fill-rule:evenodd;}</style></defs><title>partly-cloudy-night</title><g id="Layer_2" data-name="Layer 2"><g id="Climacons"><path class="cls-1" d="M41.82,20.11h0A12,12,0,0,1,32,39H16A16,16,0,1,1,21.68,8.05h0A12,12,0,0,1,33,0a12.25,12.25,0,0,1,2.2.21A8.12,8.12,0,0,0,35,2a8,8,0,0,0,8,8,8,8,0,0,0,1.79-.21A11.5,11.5,0,0,1,45,12,12,12,0,0,1,41.82,20.11ZM4,23A12,12,0,0,0,16,35H32a8,8,0,1,0-4.34-14.71A12,12,0,0,0,4,23ZM23.55,8.9Zm7.66-4.69A8,8,0,0,0,25.28,10h0A15.94,15.94,0,0,1,30,15.2a12.48,12.48,0,0,1,2-.2,12,12,0,0,1,7,2.27h0a8,8,0,0,0,1.79-3.48A12,12,0,0,1,31.21,4.21Z"/></g></g></svg>