<svg xmlns="http://www.w3.org/2000/svg" viewBox="0 0 53.99 47.99"><defs><style>.cls-1{fill:#e3c536;fill-rule:evenodd;}</style></defs><title>partlySunny</title><g id="Layer_2" data-name="Layer 2"><g id="Climacons"><path class="cls-1" d="M52,26H48a2,2,0,0,1,0-4h4a2,2,0,1,1,0,4ZM44.14,12.68a2,2,0,0,1-2.83-2.82L44.14,7A2,2,0,0,1,47,9.86Zm-3,15.61h0A12,12,0,0,1,32,48H16a16,16,0,1,1,4.52-31.34A12,12,0,0,1,41.19,28.29ZM4,32A12,12,0,0,0,16,44H32a8,8,0,1,0-4.34-14.7A12,12,0,0,0,4,32ZM30,16a8,8,0,0,0-5.67,2.35A16,16,0,0,1,30,24.2a12.48,12.48,0,0,1,2-.2,11.94,11.94,0,0,1,5.85,1.52h0A8.42,8.42,0,0,0,38,24,8,8,0,0,0,30,16Zm0-8a2,2,0,0,1-2-2V2a2,2,0,0,1,4,0V6A2,2,0,0,1,30,8ZM15.86,12.68,13,9.86A2,2,0,0,1,15.86,7l2.82,2.83a2,2,0,0,1-2.82,2.82Z"/></g></g></svg>