<svg xmlns="http://www.w3.org/2000/svg" viewBox="0 0 43.99 43.99"><defs><style>.cls-1{fill:#44b4df;fill-rule:evenodd;}</style></defs><title>rain</title><g id="Layer_2" data-name="Layer 2"><g id="Climacons"><path class="cls-1" d="M36,31.3V26.92a8,8,0,1,0-8.34-13.63A12,12,0,1,0,8,24.92v4.92A16,16,0,1,1,30,8.2,12.48,12.48,0,0,1,32,8a12,12,0,0,1,4,23.3ZM14,20a2,2,0,0,1,2,2v4a2,2,0,0,1-4,0V22A2,2,0,0,1,14,20Zm0,12a2,2,0,0,1,2,2v4a2,2,0,0,1-4,0V34A2,2,0,0,1,14,32Zm8-8a2,2,0,0,1,2,2v4a2,2,0,0,1-4,0V26A2,2,0,0,1,22,24Zm0,12a2,2,0,0,1,2,2v4a2,2,0,0,1-4,0V38A2,2,0,0,1,22,36Zm8-16a2,2,0,0,1,2,2v4a2,2,0,0,1-4,0V22A2,2,0,0,1,30,20Zm0,12a2,2,0,0,1,2,2v4a2,2,0,1,1-4,0V34A2,2,0,0,1,30,32Z"/></g></g></svg>