<svg xmlns="http://www.w3.org/2000/svg" viewBox="0 0 43.99 43.99"><defs><style>.cls-1{fill:#44b4df;fill-rule:evenodd;}</style></defs><title>mixed</title><g id="Layer_2" data-name="Layer 2"><g id="Climacons"><path class="cls-1" d="M36,31.3V26.92a8,8,0,1,0-8.34-13.63A12,12,0,1,0,8,24.92v4.92A16,16,0,1,1,30,8.2,12.48,12.48,0,0,1,32,8a12,12,0,0,1,4,23.3ZM14,32c-1.11,0-1-.9-1-2V22c0-1.11-.11-2,1-2s1,.89,1,2v8C15,31.1,15.1,32,14,32Zm0,4a2,2,0,1,1-2,2A2,2,0,0,1,14,36Zm8,0c-1.11,0-1-.89-1-2V26c0-1.11-.11-2,1-2s1,.89,1,2v8C23,35.1,23.1,36,22,36Zm0,4a2,2,0,1,1-2,2A2,2,0,0,1,22,40Zm8-8c-1.11,0-1-.9-1-2V22c0-1.11-.11-2,1-2s1,.89,1,2v8C31,31.1,31.1,32,30,32Zm0,4a2,2,0,1,1-2,2A2,2,0,0,1,30,36Z"/></g></g></svg>