<svg xmlns="http://www.w3.org/2000/svg" viewBox="0 0 43.99 38"><defs><style>.cls-1{fill:#44b4df;fill-rule:evenodd;}</style></defs><title>snow</title><g id="Layer_2" data-name="Layer 2"><g id="Climacons"><path class="cls-1" d="M34,31.82V27.73a8,8,0,1,0-6.34-14.44A12,12,0,1,0,10,26.38v4.44A16,16,0,1,1,30,8.2,12.48,12.48,0,0,1,32,8a12,12,0,0,1,2,23.82ZM15.07,26a2,2,0,0,1,2.73-.74L20,26.53V24a2,2,0,0,1,4,0v2.53l2.19-1.27a2,2,0,0,1,2,3.47L26,30l2.19,1.26a2,2,0,0,1-2,3.47L24,33.46V36a2,2,0,0,1-4,0V33.46l-2.2,1.27a2,2,0,0,1-2-3.47L18,30l-2.2-1.27A2,2,0,0,1,15.07,26ZM22,32a2,2,0,1,0-2-2A2,2,0,0,0,22,32Z"/></g></g></svg>