<svg xmlns="http://www.w3.org/2000/svg" viewBox="0 0 47.99 47.99"><defs><style>.cls-1{fill:#e3c536;fill-rule:evenodd;}</style></defs><title>sun</title><g id="Layer_2" data-name="Layer 2"><g id="Climacons"><path class="cls-1" d="M46,26H42a2,2,0,0,1,0-4h4a2,2,0,1,1,0,4ZM38.14,12.68a2,2,0,0,1-2.83-2.82L38.14,7A2,2,0,0,1,41,9.86ZM24,36A12,12,0,1,1,36,24,12,12,0,0,1,24,36Zm0-20a8,8,0,1,0,8,8A8,8,0,0,0,24,16Zm0-8a2,2,0,0,1-2-2V2a2,2,0,0,1,4,0V6A2,2,0,0,1,24,8ZM9.86,12.68,7,9.86A2,2,0,0,1,9.86,7l2.82,2.83a2,2,0,0,1-2.82,2.82ZM8,24a2,2,0,0,1-2,2H2a2,2,0,0,1,0-4H6A2,2,0,0,1,8,24ZM9.86,35.31a2,2,0,0,1,2.82,2.83L9.86,41A2,2,0,0,1,7,38.14ZM24,40a2,2,0,0,1,2,2v4a2,2,0,1,1-4,0V42A2,2,0,0,1,24,40Zm14.14-4.69L41,38.14A2,2,0,0,1,38.14,41l-2.83-2.82a2,2,0,0,1,2.83-2.83Z"/></g></g></svg>