<svg xmlns="http://www.w3.org/2000/svg" viewBox="0 0 53.99 47.99"><defs><style>.cls-1{fill:#44b4df;fill-rule:evenodd;}</style></defs><title>windy</title><g id="Layer_2" data-name="Layer 2"><g id="Climacons"><path class="cls-1" d="M48.74,35.94V36H45a2,2,0,0,1,0-4h3a2,2,0,1,0,0-4,2,2,0,0,1,0-4,1.84,1.84,0,0,1,.41,0,6,6,0,0,1,.34,11.9ZM38,24a2,2,0,0,1,0-4,1.81,1.81,0,0,1,.4,0,6,6,0,0,1,.35,11.9V32H16a2,2,0,0,0,0,4H38.75v0A6,6,0,0,1,38.4,48a1.81,1.81,0,0,1-.4,0,2,2,0,1,1,0-4,2,2,0,0,0,0-4H15.25v-.06A6,6,0,0,1,10,34a5.85,5.85,0,0,1,.77-2.89A16,16,0,1,1,30,8.2,12.48,12.48,0,0,1,32,8a12,12,0,0,1,11.79,9.86A10,10,0,0,0,39,16.05a8,8,0,0,0-11.29-2.76A12,12,0,1,0,16,28H38a2,2,0,0,0,0-4Z"/></g></g></svg>